<?xml version="1.0" encoding="UTF-8"?>
<svg version="1.1" xmlns="http://www.w3.org/2000/svg" width="512" height="512">
<path d="M0 0 C1.05338562 -0.00101212 1.05338562 -0.00101212 2.12805176 -0.00204468 C56.60178315 0.0805287 105.84819625 21.59725767 144.8125 59.25 C145.53566406 59.92160156 146.25882812 60.59320313 147.00390625 61.28515625 C153.34670746 67.3204277 158.54719168 74.28439694 163.8125 81.25 C164.23821289 81.80429688 164.66392578 82.35859375 165.10253906 82.9296875 C191.14952796 116.98016869 204.02547999 159.83812987 204.0625 202.4375 C204.06317474 203.13975708 204.06384949 203.84201416 204.06454468 204.56555176 C204.0161775 236.47342383 197.09456736 268.1330451 181.84960938 296.32763672 C180.81176346 298.25136523 179.80408756 300.18899928 178.796875 302.12890625 C169.64465798 319.4068631 157.5186779 334.39273359 143.8125 348.25 C143.24007568 348.83998779 142.66765137 349.42997559 142.07788086 350.0378418 C138.34036692 353.85288679 134.48149363 357.30693832 130.25 360.5625 C129.64559082 361.02978516 129.04118164 361.49707031 128.41845703 361.97851562 C126.55557748 363.41008809 124.68476907 364.8307394 122.8125 366.25 C122.25675293 366.67716309 121.70100586 367.10432617 121.12841797 367.54443359 C87.0548002 393.60672514 44.18547417 406.46306013 1.5625 406.5 C0.50619888 406.50101212 0.50619888 406.50101212 -0.57144165 406.50204468 C-12.97316644 406.48328155 -24.99984038 405.62899369 -37.1875 403.25 C-38.04811035 403.08371094 -38.9087207 402.91742188 -39.79541016 402.74609375 C-58.87069407 398.92183041 -77.28036506 392.50472146 -94.39208984 383.22363281 C-96.12298052 382.28498826 -97.86793376 381.37241886 -99.61328125 380.4609375 C-116.25393779 371.44005103 -130.77535262 359.51591209 -144.1875 346.25 C-144.77748779 345.67757568 -145.36747559 345.10515137 -145.9753418 344.51538086 C-149.79038679 340.77786692 -153.24443832 336.91899363 -156.5 332.6875 C-156.96728516 332.08309082 -157.43457031 331.47868164 -157.91601562 330.85595703 C-159.34758809 328.99307748 -160.7682394 327.12226907 -162.1875 325.25 C-162.61466309 324.69425293 -163.04182617 324.13850586 -163.48193359 323.56591797 C-189.52592566 289.51622479 -202.40048225 246.65926403 -202.4375 204.0625 C-202.43817474 203.36024292 -202.43884949 202.65798584 -202.43954468 201.93444824 C-202.3911775 170.02657617 -195.46956736 138.3669549 -180.22460938 110.17236328 C-179.18676346 108.24863477 -178.17908756 106.31100072 -177.171875 104.37109375 C-168.01965798 87.0931369 -155.8936779 72.10726641 -142.1875 58.25 C-141.61507568 57.66001221 -141.04265137 57.07002441 -140.45288086 56.4621582 C-136.71536692 52.64711321 -132.85649363 49.19306168 -128.625 45.9375 C-128.02059082 45.47021484 -127.41618164 45.00292969 -126.79345703 44.52148438 C-124.93057748 43.08991191 -123.05976907 41.6692606 -121.1875 40.25 C-120.63175293 39.82283691 -120.07600586 39.39567383 -119.50341797 38.95556641 C-92.44835695 18.26164148 -58.9474414 5.33389604 -25.1875 1.25 C-24.46361084 1.1571875 -23.73972168 1.064375 -22.99389648 0.96875 C-15.34519678 0.08441598 -7.6925463 0.00668503 0 0 Z " fill="#D6E826" transform="translate(255.1875,52.75)"/>
<path d="M0 0 C14.80579757 7.1521105 27.7460432 14.98602692 40 26 C40.804375 26.71929687 41.60875 27.43859375 42.4375 28.1796875 C66.27078764 50.73619188 79.28220141 83.57670431 80.33666992 116.00732422 C80.86767065 150.53928213 67.59782579 182.44464345 44.30078125 207.6328125 C31.62624647 220.67316577 16.87522255 229.46550886 1 238 C-2.8430727 234.4261443 -5.66598456 230.73225124 -8.3125 226.1875 C-8.69639893 225.53587891 -9.08029785 224.88425781 -9.47583008 224.21289062 C-28.14316894 192.08681085 -38.21767601 157.00809699 -38.25 119.8125 C-38.25067474 119.11024292 -38.25134949 118.40798584 -38.25204468 117.68444824 C-38.20227329 84.85021818 -30.73114562 52.91206909 -15 24 C-14.62552734 23.30326172 -14.25105469 22.60652344 -13.86523438 21.88867188 C-9.71349021 14.19224529 -5.53226931 6.80894684 0 0 Z " fill="#D6E826" transform="translate(91,137)"/>
<path d="M0 0 C3.8430727 3.5738557 6.66598456 7.26774876 9.3125 11.8125 C9.69639893 12.46412109 10.08029785 13.11574219 10.47583008 13.78710938 C29.14316894 45.91318915 39.21767601 80.99190301 39.25 118.1875 C39.25067474 118.88975708 39.25134949 119.59201416 39.25204468 120.31555176 C39.20227329 153.14978182 31.73114562 185.08793091 16 214 C15.62552734 214.69673828 15.25105469 215.39347656 14.86523438 216.11132812 C10.71349021 223.80775471 6.53226931 231.19105316 1 238 C-14.69241654 230.60703868 -28.0271751 221.51958495 -41 210 C-41.65484375 209.43023437 -42.3096875 208.86046875 -42.984375 208.2734375 C-57.20657551 195.06710846 -66.8440313 176.26112763 -73 158.125 C-73.27875977 157.30628418 -73.55751953 156.48756836 -73.84472656 155.64404297 C-77.53653637 144.0580441 -78.35208684 132.39792291 -78.31567383 120.31689453 C-78.31251293 118.13393132 -78.33608356 115.95232855 -78.36132812 113.76953125 C-78.51183374 80.40635653 -63.02770718 50.5557268 -40.1875 26.875 C-28.63222616 15.62194101 -14.57233088 6.84007368 0 0 Z " fill="#D6E826" transform="translate(420,137)"/>
<path d="M0 0 C3.36939921 1.28604444 6.49385841 2.74516993 9.640625 4.50390625 C58.04048536 31.01857439 113.70898413 38.53972716 167 23 C183.9540979 17.97135564 201.89349351 11.21463614 216.23730469 0.70947266 C218 0 218 0 220.10473633 0.77075195 C222.28387923 2.18412108 224.05400529 3.77299927 225.9375 5.5625 C236.58692143 15.18526152 249.17495551 22.64534159 262 29 C253.06092014 38.28046658 244.08578438 47.11104918 233.69140625 54.75292969 C232.01897152 55.98601234 230.36864524 57.24479604 228.71875 58.5078125 C195.05785903 83.86251188 152.58130235 96.21374625 110.75 96.25 C109.69369888 96.25101212 109.69369888 96.25101212 108.61605835 96.25204468 C96.21433356 96.23328155 84.18765962 95.37899369 72 93 C71.13938965 92.83371094 70.2787793 92.66742188 69.39208984 92.49609375 C50.31680593 88.67183041 31.90713494 82.25472146 14.79541016 72.97363281 C13.06451948 72.03498826 11.31956624 71.12241886 9.57421875 70.2109375 C-10.12297136 59.53310664 -26.30915039 44.77078413 -42 29 C-41.42217773 28.71423096 -40.84435547 28.42846191 -40.24902344 28.1340332 C-25.50309573 20.69864087 -11.62501766 11.83385031 0 0 Z " fill="#C8D924" transform="translate(146,363)"/>
<path d="M0 0 C3.91334276 2.57707938 6.660472 6.04277289 9.5625 9.6875 C10.44035156 10.68136719 10.44035156 10.68136719 11.3359375 11.6953125 C12.5625 13.6875 12.5625 13.6875 12.69921875 15.7109375 C10.85566624 18.91656488 7.63042358 19.87317731 4.375 21.3125 C-24.56197737 34.98078342 -46.59315494 60.77099105 -57.9375 90.50390625 C-62.95237788 104.81720353 -64.98259338 118.47772509 -64.8125 133.5625 C-64.80502243 134.68218674 -64.80502243 134.68218674 -64.7973938 135.82449341 C-64.56551029 165.45444878 -55.50147905 192.69074205 -36.4375 215.6875 C-35.74140625 216.53570312 -35.0453125 217.38390625 -34.328125 218.2578125 C-21.34677622 233.37113462 -4.96660509 243.6317663 12.5625 252.6875 C11.97066737 256.55234645 10.14174369 258.76984694 7.6875 261.75 C6.63949219 263.03583984 6.63949219 263.03583984 5.5703125 264.34765625 C4.57644531 265.50587891 4.57644531 265.50587891 3.5625 266.6875 C3.10617187 267.30496094 2.64984375 267.92242187 2.1796875 268.55859375 C0.5625 269.6875 0.5625 269.6875 -2.1328125 269.640625 C-6.26902573 268.44767461 -9.63358791 266.64238559 -13.3125 264.4375 C-14.05209961 263.99639893 -14.79169922 263.55529785 -15.55371094 263.10083008 C-44.63981623 245.26040446 -66.19022548 218.38000861 -78.4375 186.6875 C-78.87835938 185.57761719 -79.31921875 184.46773437 -79.7734375 183.32421875 C-89.10084726 157.91409338 -90.91586321 127.98551321 -84.4375 101.6875 C-84.15543701 100.52226807 -84.15543701 100.52226807 -83.86767578 99.33349609 C-79.31887421 81.199809 -71.6856272 63.68500294 -60.4375 48.6875 C-60.03982422 48.14609375 -59.64214844 47.6046875 -59.23242188 47.046875 C-49.06710213 33.26549495 -19.66415719 -2.52104579 0 0 Z " fill="#EBEEED" transform="translate(407.4375,121.3125)"/>
<path d="M0 0 C15.69904458 6.99673468 28.87872935 17.55061241 41.1640625 29.41015625 C42.00807617 30.21803589 42.00807617 30.21803589 42.86914062 31.04223633 C69.17364928 56.69489448 83.74267793 94.28024559 84.45703125 130.63891602 C84.73889548 172.43585754 69.98085365 209.26417732 41.1640625 239.41015625 C40.50664062 240.13074219 39.84921875 240.85132813 39.171875 241.59375 C30.02725662 251.27324228 18.9593822 259.05976911 7.4765625 265.72265625 C6.48837524 266.30950195 6.48837524 266.30950195 5.48022461 266.90820312 C2.72833267 268.44070449 0.64259117 269.41015625 -2.53515625 269.41015625 C-5.47315893 268.13319753 -6.9129283 266.55125159 -8.9609375 264.09765625 C-9.62351562 263.31777344 -10.28609375 262.53789062 -10.96875 261.734375 C-11.58492188 260.96738281 -12.20109375 260.20039063 -12.8359375 259.41015625 C-13.43148437 258.73597656 -14.02703125 258.06179688 -14.640625 257.3671875 C-15.8359375 255.41015625 -15.8359375 255.41015625 -15.64794922 253.42700195 C-14.58793195 250.79416891 -13.57938874 250.38322437 -11.0390625 249.18359375 C-10.25152588 248.79695557 -9.46398926 248.41031738 -8.65258789 248.01196289 C-7.80559326 247.6071167 -6.95859863 247.20227051 -6.0859375 246.78515625 C2.55043438 242.4439948 9.81719783 237.69783991 17.1640625 231.41015625 C17.6698584 230.98653809 18.1756543 230.56291992 18.69677734 230.12646484 C43.97393146 208.83664767 59.00987115 177.08580517 62.1640625 144.41015625 C63.81855449 120.48545431 58.95776325 97.77614851 48.1640625 76.41015625 C47.70257813 75.476875 47.24109375 74.54359375 46.765625 73.58203125 C33.15927634 47.27141229 10.26389791 29.22280272 -15.8359375 16.41015625 C-15.23886104 12.56926144 -13.44689806 10.32864763 -11.0234375 7.34765625 C-9.99283203 6.06181641 -9.99283203 6.06181641 -8.94140625 4.75 C-3.93141403 -0.8176908 -3.93141403 -0.8176908 0 0 Z " fill="#EBEEEE" transform="translate(107.8359375,121.58984375)"/>
<path d="M0 0 C0.33 0 0.66 0 1 0 C1.34611328 1.77890625 1.34611328 1.77890625 1.69921875 3.59375 C8.9334876 39.89724425 23.92039617 71.80715424 48 100 C48.68320313 100.80695313 49.36640625 101.61390625 50.0703125 102.4453125 C60.35572338 114.64488785 60.35572338 114.64488785 73 124 C73 126 73 126 71.75683594 127.24584961 C69.7658865 128.82572009 67.76922691 130.39380359 65.75 131.9375 C65.00306885 132.51072998 64.2561377 133.08395996 63.48657227 133.67456055 C54.87990759 140.0961364 45.53545307 145.1081565 36 150 C32.1569273 146.4261443 29.33401544 142.73225124 26.6875 138.1875 C26.30360107 137.53587891 25.91970215 136.88425781 25.52416992 136.21289062 C7.18994543 104.66009335 -3.18958217 69.92338578 -3.18530273 33.34277344 C-3.18748177 31.2673669 -3.2056848 29.19250012 -3.22460938 27.1171875 C-3.2613902 18.29240676 -2.77091474 9.67380132 -1 1 C-0.67 0.67 -0.34 0.34 0 0 Z " fill="#C8D924" transform="translate(56,225)"/>
<path d="M0 0 C0.66 0 1.32 0 2 0 C3.67343923 9.88641459 4.35478285 19.40482195 4.3125 29.4375 C4.31067719 30.12976685 4.30885437 30.82203369 4.30697632 31.53527832 C4.16291557 64.28352426 -3.31059364 96.16464295 -19 125 C-19.37447266 125.69673828 -19.74894531 126.39347656 -20.13476562 127.11132812 C-24.28650979 134.80775471 -28.46773069 142.19105316 -34 149 C-44.36452683 144.11709711 -53.79726209 138.846837 -63 132 C-64.38832031 130.98292969 -64.38832031 130.98292969 -65.8046875 129.9453125 C-70.38493301 126.5065612 -70.38493301 126.5065612 -72 125 C-72 124.34 -72 123.68 -72 123 C-70.44406999 121.63066121 -68.82702659 120.33055343 -67.1875 119.0625 C-57.26873962 111.10457286 -48.77204649 102.05483773 -41 92 C-40.58282715 91.46987305 -40.1656543 90.93974609 -39.73583984 90.39355469 C-19.52603742 64.59030195 -4.43813644 32.67386652 0 0 Z " fill="#C8D924" transform="translate(455,226)"/>
<path d="M0 0 C4.08055405 2.3745597 7.94656353 4.98522334 11.8125 7.6875 C12.40998047 8.10322266 13.00746094 8.51894531 13.62304688 8.94726562 C15.0830283 9.9634127 16.54165431 10.98150675 18 12 C13.79614315 17.19916252 9.45887028 21.35796744 4.125 25.375 C3.39120117 25.93010254 2.65740234 26.48520508 1.90136719 27.05712891 C-3.14468125 30.79690016 -8.31314712 34.23029075 -13.75 37.375 C-14.40468262 37.76220215 -15.05936523 38.1494043 -15.73388672 38.54833984 C-18.47004817 40.06209748 -20.54200439 41.00066376 -23.6953125 40.99609375 C-26.63904061 39.72380448 -28.07494929 38.14354114 -30.125 35.6875 C-30.78757812 34.90761719 -31.45015625 34.12773437 -32.1328125 33.32421875 C-33.05707031 32.17373047 -33.05707031 32.17373047 -34 31 C-34.59554687 30.32582031 -35.19109375 29.65164063 -35.8046875 28.95703125 C-37 27 -37 27 -36.81201172 25.0168457 C-35.75199445 22.38401266 -34.74345124 21.97306812 -32.203125 20.7734375 C-31.41494385 20.38615479 -30.6267627 19.99887207 -29.81469727 19.59985352 C-28.96834717 19.19565186 -28.12199707 18.7914502 -27.25 18.375 C-18.6220012 14.06708179 -11.41210017 9.1485458 -4 3 C-2.67331828 1.9911921 -1.34279625 0.98725681 0 0 Z " fill="#E0E4E1" transform="translate(129,350)"/>
<path d="M0 0 C3.92144879 2.35286927 7.06343342 4.62992674 10.5625 7.5 C18.97093894 14.2050324 28.499362 19.03831849 38 24 C37.18144691 27.86232386 35.64746603 29.99950554 33.125 33.0625 C32.42632812 33.91972656 31.72765625 34.77695312 31.0078125 35.66015625 C30.34523438 36.43230469 29.68265625 37.20445312 29 38 C28.54367187 38.61746094 28.08734375 39.23492187 27.6171875 39.87109375 C26 41 26 41 23.3046875 40.953125 C19.16820844 39.76009794 15.80455815 37.95416539 12.125 35.75 C11.39192627 35.31469971 10.65885254 34.87939941 9.90356445 34.4309082 C-0.09185936 28.31861406 -9.66589184 21.16763521 -17 12 C-8.585 6.06 -8.585 6.06 0 0 Z " fill="#E0E4E1" transform="translate(382,350)"/>
</svg>
